<svg id="Exhibition_curator_logo_-_dark" data-name="Exhibition curator logo - dark" xmlns="http://www.w3.org/2000/svg" width="150" height="153" viewBox="0 0 150 153">
  <g id="Collumn" transform="translate(-563 -443)">
    <line id="Line_1" data-name="Line 1" y2="60" transform="translate(668.5 509.5)" fill="none" stroke="#000" stroke-linecap="round" stroke-width="5"/>
    <line id="Line_2" data-name="Line 2" y2="59.5" transform="translate(663.5 510.5)" fill="none" stroke="#000" stroke-linecap="round" stroke-width="3"/>
    <line id="Line_3" data-name="Line 3" y2="59.5" transform="translate(673.5 510.5)" fill="none" stroke="#000" stroke-linecap="round" stroke-width="3"/>
    <line id="Line_4" data-name="Line 4" x1="35" transform="translate(651 579.5)" fill="none" stroke="#000" stroke-linecap="round" stroke-width="5"/>
    <line id="Line_5" data-name="Line 5" x1="35" transform="translate(650.5 504.5)" fill="none" stroke="#000" stroke-linecap="round" stroke-width="5"/>
    <g id="Ellipse_1" data-name="Ellipse 1" transform="translate(646.5 507)" fill="none" stroke="#000" stroke-width="2">
      <circle cx="7.5" cy="7.5" r="7.5" stroke="none"/>
      <circle cx="7.5" cy="7.5" r="6.5" fill="none"/>
    </g>
    <g id="Ellipse_2" data-name="Ellipse 2" transform="translate(675.5 507)" fill="none" stroke="#000" stroke-width="2">
      <circle cx="7.5" cy="7.5" r="7.5" stroke="none"/>
      <circle cx="7.5" cy="7.5" r="6.5" fill="none"/>
    </g>
    <line id="Line_7" data-name="Line 7" x1="15" transform="translate(660.5 574.5)" fill="none" stroke="#000" stroke-linecap="round" stroke-width="5"/>
  </g>
  <g id="Painting_1" data-name="Painting 1" transform="translate(22 88)" fill="#3a3b43" stroke="#000" stroke-width="3">
    <rect width="71" height="40" stroke="none"/>
    <rect x="1.5" y="1.5" width="68" height="37" fill="none"/>
  </g>
  <g id="Box_body" data-name="Box body" transform="translate(12 35)" fill="none" stroke="#000" stroke-linejoin="round" stroke-width="5">
    <rect width="125" height="118" stroke="none"/>
    <rect x="2.5" y="2.5" width="120" height="113" fill="none"/>
  </g>
  <g id="Box_lid" data-name="Box lid" fill="none" stroke="#000" stroke-linejoin="round" stroke-width="5">
    <rect width="150" height="40" stroke="none"/>
    <rect x="2.5" y="2.5" width="145" height="35" fill="none"/>
  </g>
  <g id="Painting_2" data-name="Painting 2" transform="translate(28.496 61.196) rotate(-25)" fill="#3a3b43" stroke="#000" stroke-width="3">
    <rect width="47" height="27" stroke="none"/>
    <rect x="1.5" y="1.5" width="44" height="24" fill="none"/>
  </g>
</svg>
